<mxfile host="app.diagrams.net" modified="2023-08-24T13:28:23.758Z" agent="Mozilla/5.0 (Windows NT 10.0; Win64; x64) AppleWebKit/537.36 (KHTML, like Gecko) Chrome/114.0.0.0 YaBrowser/23.7.3.823 Yowser/2.5 Safari/537.36" etag="V27PRTwL_-xTvjJEx3rx" version="21.6.8" type="device">
  <diagram name="Страница — 1" id="L49N8Cmz5H1TkfE_jQOs">
    <mxGraphModel dx="956" dy="529" grid="1" gridSize="10" guides="1" tooltips="1" connect="1" arrows="1" fold="1" page="1" pageScale="1" pageWidth="827" pageHeight="1169" math="0" shadow="0">
      <root>
        <mxCell id="0" />
        <mxCell id="1" parent="0" />
        <mxCell id="rXd6ZdkgUhDu2Mj4XO8n-8" value="" style="edgeStyle=orthogonalEdgeStyle;rounded=0;orthogonalLoop=1;jettySize=auto;html=1;" edge="1" parent="1" source="rXd6ZdkgUhDu2Mj4XO8n-1" target="rXd6ZdkgUhDu2Mj4XO8n-2">
          <mxGeometry relative="1" as="geometry" />
        </mxCell>
        <mxCell id="rXd6ZdkgUhDu2Mj4XO8n-1" value="max_to_end" style="rounded=1;whiteSpace=wrap;html=1;" vertex="1" parent="1">
          <mxGeometry x="354" y="40" width="120" height="60" as="geometry" />
        </mxCell>
        <mxCell id="rXd6ZdkgUhDu2Mj4XO8n-14" style="edgeStyle=orthogonalEdgeStyle;rounded=0;orthogonalLoop=1;jettySize=auto;html=1;entryX=0.529;entryY=-0.048;entryDx=0;entryDy=0;entryPerimeter=0;" edge="1" parent="1" source="rXd6ZdkgUhDu2Mj4XO8n-2" target="rXd6ZdkgUhDu2Mj4XO8n-3">
          <mxGeometry relative="1" as="geometry" />
        </mxCell>
        <mxCell id="rXd6ZdkgUhDu2Mj4XO8n-2" value="arr[]" style="shape=parallelogram;perimeter=parallelogramPerimeter;whiteSpace=wrap;html=1;fixedSize=1;" vertex="1" parent="1">
          <mxGeometry x="320" y="150" width="190" height="60" as="geometry" />
        </mxCell>
        <mxCell id="rXd6ZdkgUhDu2Mj4XO8n-15" style="edgeStyle=orthogonalEdgeStyle;rounded=0;orthogonalLoop=1;jettySize=auto;html=1;entryX=0.5;entryY=0;entryDx=0;entryDy=0;" edge="1" parent="1" source="rXd6ZdkgUhDu2Mj4XO8n-3" target="rXd6ZdkgUhDu2Mj4XO8n-4">
          <mxGeometry relative="1" as="geometry" />
        </mxCell>
        <mxCell id="rXd6ZdkgUhDu2Mj4XO8n-3" value="last_index = arr.length-1&lt;br&gt;index = 0" style="rounded=0;whiteSpace=wrap;html=1;" vertex="1" parent="1">
          <mxGeometry x="310" y="240" width="200" height="60" as="geometry" />
        </mxCell>
        <mxCell id="rXd6ZdkgUhDu2Mj4XO8n-16" style="edgeStyle=orthogonalEdgeStyle;rounded=0;orthogonalLoop=1;jettySize=auto;html=1;entryX=0.5;entryY=0;entryDx=0;entryDy=0;" edge="1" parent="1" source="rXd6ZdkgUhDu2Mj4XO8n-4" target="rXd6ZdkgUhDu2Mj4XO8n-5">
          <mxGeometry relative="1" as="geometry" />
        </mxCell>
        <mxCell id="rXd6ZdkgUhDu2Mj4XO8n-25" value="Yes" style="edgeLabel;html=1;align=center;verticalAlign=middle;resizable=0;points=[];" vertex="1" connectable="0" parent="rXd6ZdkgUhDu2Mj4XO8n-16">
          <mxGeometry x="0.251" y="2" relative="1" as="geometry">
            <mxPoint as="offset" />
          </mxGeometry>
        </mxCell>
        <mxCell id="rXd6ZdkgUhDu2Mj4XO8n-22" style="edgeStyle=orthogonalEdgeStyle;rounded=0;orthogonalLoop=1;jettySize=auto;html=1;entryX=0;entryY=0.5;entryDx=0;entryDy=0;" edge="1" parent="1" source="rXd6ZdkgUhDu2Mj4XO8n-4" target="rXd6ZdkgUhDu2Mj4XO8n-20">
          <mxGeometry relative="1" as="geometry" />
        </mxCell>
        <mxCell id="rXd6ZdkgUhDu2Mj4XO8n-26" value="No" style="edgeLabel;html=1;align=center;verticalAlign=middle;resizable=0;points=[];" vertex="1" connectable="0" parent="rXd6ZdkgUhDu2Mj4XO8n-22">
          <mxGeometry x="-0.5264" relative="1" as="geometry">
            <mxPoint as="offset" />
          </mxGeometry>
        </mxCell>
        <mxCell id="rXd6ZdkgUhDu2Mj4XO8n-4" value="index &amp;lt; last_index" style="rhombus;whiteSpace=wrap;html=1;" vertex="1" parent="1">
          <mxGeometry x="325" y="330" width="170" height="80" as="geometry" />
        </mxCell>
        <mxCell id="rXd6ZdkgUhDu2Mj4XO8n-17" style="edgeStyle=orthogonalEdgeStyle;rounded=0;orthogonalLoop=1;jettySize=auto;html=1;entryX=0.5;entryY=0;entryDx=0;entryDy=0;" edge="1" parent="1" source="rXd6ZdkgUhDu2Mj4XO8n-5" target="rXd6ZdkgUhDu2Mj4XO8n-6">
          <mxGeometry relative="1" as="geometry" />
        </mxCell>
        <mxCell id="rXd6ZdkgUhDu2Mj4XO8n-27" value="Yes" style="edgeLabel;html=1;align=center;verticalAlign=middle;resizable=0;points=[];" vertex="1" connectable="0" parent="rXd6ZdkgUhDu2Mj4XO8n-17">
          <mxGeometry x="0.1128" relative="1" as="geometry">
            <mxPoint as="offset" />
          </mxGeometry>
        </mxCell>
        <mxCell id="rXd6ZdkgUhDu2Mj4XO8n-21" style="edgeStyle=orthogonalEdgeStyle;rounded=0;orthogonalLoop=1;jettySize=auto;html=1;entryX=1;entryY=0.5;entryDx=0;entryDy=0;" edge="1" parent="1" source="rXd6ZdkgUhDu2Mj4XO8n-5" target="rXd6ZdkgUhDu2Mj4XO8n-7">
          <mxGeometry relative="1" as="geometry" />
        </mxCell>
        <mxCell id="rXd6ZdkgUhDu2Mj4XO8n-28" value="No" style="edgeLabel;html=1;align=center;verticalAlign=middle;resizable=0;points=[];" vertex="1" connectable="0" parent="rXd6ZdkgUhDu2Mj4XO8n-21">
          <mxGeometry x="-0.1855" y="1" relative="1" as="geometry">
            <mxPoint as="offset" />
          </mxGeometry>
        </mxCell>
        <mxCell id="rXd6ZdkgUhDu2Mj4XO8n-5" value="arr[index] &amp;gt; arr[last_index]" style="rhombus;whiteSpace=wrap;html=1;" vertex="1" parent="1">
          <mxGeometry x="325" y="440" width="170" height="80" as="geometry" />
        </mxCell>
        <mxCell id="rXd6ZdkgUhDu2Mj4XO8n-18" style="edgeStyle=orthogonalEdgeStyle;rounded=0;orthogonalLoop=1;jettySize=auto;html=1;entryX=1;entryY=0.5;entryDx=0;entryDy=0;" edge="1" parent="1" source="rXd6ZdkgUhDu2Mj4XO8n-6" target="rXd6ZdkgUhDu2Mj4XO8n-7">
          <mxGeometry relative="1" as="geometry" />
        </mxCell>
        <mxCell id="rXd6ZdkgUhDu2Mj4XO8n-6" value="tmp = arr[last_index]&lt;br&gt;arr[last_index] = arr[index]&lt;br&gt;arr[index] = tmp" style="rounded=0;whiteSpace=wrap;html=1;" vertex="1" parent="1">
          <mxGeometry x="310" y="555" width="200" height="60" as="geometry" />
        </mxCell>
        <mxCell id="rXd6ZdkgUhDu2Mj4XO8n-19" style="edgeStyle=orthogonalEdgeStyle;rounded=0;orthogonalLoop=1;jettySize=auto;html=1;entryX=0;entryY=0.5;entryDx=0;entryDy=0;" edge="1" parent="1" source="rXd6ZdkgUhDu2Mj4XO8n-7" target="rXd6ZdkgUhDu2Mj4XO8n-4">
          <mxGeometry relative="1" as="geometry">
            <Array as="points">
              <mxPoint x="200" y="370" />
            </Array>
          </mxGeometry>
        </mxCell>
        <mxCell id="rXd6ZdkgUhDu2Mj4XO8n-7" value="index = index +1" style="rounded=0;whiteSpace=wrap;html=1;" vertex="1" parent="1">
          <mxGeometry x="130" y="555" width="120" height="60" as="geometry" />
        </mxCell>
        <mxCell id="rXd6ZdkgUhDu2Mj4XO8n-24" style="edgeStyle=orthogonalEdgeStyle;rounded=0;orthogonalLoop=1;jettySize=auto;html=1;entryX=0.5;entryY=0.083;entryDx=0;entryDy=0;entryPerimeter=0;" edge="1" parent="1" source="rXd6ZdkgUhDu2Mj4XO8n-20" target="rXd6ZdkgUhDu2Mj4XO8n-23">
          <mxGeometry relative="1" as="geometry" />
        </mxCell>
        <mxCell id="rXd6ZdkgUhDu2Mj4XO8n-20" value="arr" style="shape=document;whiteSpace=wrap;html=1;boundedLbl=1;" vertex="1" parent="1">
          <mxGeometry x="600" y="330" width="120" height="80" as="geometry" />
        </mxCell>
        <mxCell id="rXd6ZdkgUhDu2Mj4XO8n-23" value="end" style="rounded=1;whiteSpace=wrap;html=1;" vertex="1" parent="1">
          <mxGeometry x="600" y="495" width="120" height="60" as="geometry" />
        </mxCell>
      </root>
    </mxGraphModel>
  </diagram>
</mxfile>
